<?xml version='1.0' encoding='UTF-8' standalone='no'?>
<svg width="576pt" xmlns="http://www.w3.org/2000/svg" height="432pt" xmlns:xlink="http://www.w3.org/1999/xlink" viewBox="0 0 576 432">
 <title>gl2ps_renderer figure</title>
 <desc>
Creator: GL2PS 1.4.0, (C) 1999-2017 C. Geuzaine
For: Octave
CreationDate: Wed Apr  6 14:24:05 2022
</desc>
 <defs/>
 <polygon points="0,0 576,0 576,432 0,432" fill="#ffffff"/>
 <g>
  <polygon points="0,432 576,432 576,0 0,0" fill="#ffffff" shape-rendering="crispEdges"/>
  <clipPath id="cp00576432">
   <polygon points="0,432 576,432 576,0 0,0"/>
  </clipPath>
  <g clip-path="url(#cp00576432)">
   <polygon points="74.88,384.48 521.28,384.48 521.28,32.4 74.88,32.4" fill="#ffffff" shape-rendering="crispEdges"/>
   <polyline stroke-linecap="butt" points="155.56,384.48 155.56,388.945" stroke-linejoin="miter" fill="none" stroke="#262626" stroke-width="0.5"/>
   <polyline stroke-linecap="butt" points="238.597,384.48 238.597,388.945" stroke-linejoin="miter" fill="none" stroke="#262626" stroke-width="0.5"/>
   <polyline stroke-linecap="butt" points="321.634,384.48 321.634,388.945" stroke-linejoin="miter" fill="none" stroke="#262626" stroke-width="0.5"/>
   <polyline stroke-linecap="butt" points="404.67,384.48 404.67,388.945" stroke-linejoin="miter" fill="none" stroke="#262626" stroke-width="0.5"/>
   <polyline stroke-linecap="butt" points="487.707,384.48 487.707,388.945" stroke-linejoin="miter" fill="none" stroke="#262626" stroke-width="0.5"/>
   <text font-size="10" font-style="normal" font-family="FreeSans" xml:space="preserve" font-weight="normal" transform="translate(148.06,404.447) rotate(-0,7.5,-8)">
    <tspan fill="rgb(38,38,38)" y="-0" x="0 3 9 ">-10</tspan>
   </text>
   <text font-size="10" font-style="normal" font-family="FreeSans" xml:space="preserve" font-weight="normal" transform="translate(235.597,404.447) rotate(-0,3,-8)">
    <tspan fill="rgb(38,38,38)" y="-0" x="0 ">0</tspan>
   </text>
   <text font-size="10" font-style="normal" font-family="FreeSans" xml:space="preserve" font-weight="normal" transform="translate(315.634,404.447) rotate(-0,6,-8)">
    <tspan fill="rgb(38,38,38)" y="-0" x="0 6 ">10</tspan>
   </text>
   <text font-size="10" font-style="normal" font-family="FreeSans" xml:space="preserve" font-weight="normal" transform="translate(398.67,404.447) rotate(-0,6,-8)">
    <tspan fill="rgb(38,38,38)" y="-0" x="0 6 ">20</tspan>
   </text>
   <text font-size="10" font-style="normal" font-family="FreeSans" xml:space="preserve" font-weight="normal" transform="translate(481.707,404.447) rotate(-0,6,-8)">
    <tspan fill="rgb(38,38,38)" y="-0" x="0 6 ">30</tspan>
   </text>
   <polyline stroke-linecap="butt" points="74.88,355.447 70.412,355.447" stroke-linejoin="miter" fill="none" stroke="#262626" stroke-width="0.5"/>
   <polyline stroke-linecap="butt" points="74.88,272.411 70.412,272.411" stroke-linejoin="miter" fill="none" stroke="#262626" stroke-width="0.5"/>
   <polyline stroke-linecap="butt" points="74.88,189.374 70.412,189.374" stroke-linejoin="miter" fill="none" stroke="#262626" stroke-width="0.5"/>
   <polyline stroke-linecap="butt" points="74.88,106.337 70.412,106.337" stroke-linejoin="miter" fill="none" stroke="#262626" stroke-width="0.5"/>
   <text font-size="10" font-style="normal" font-family="FreeSans" xml:space="preserve" font-weight="normal" transform="translate(50.4075,359.447) rotate(-0,15,-4)">
    <tspan fill="rgb(38,38,38)" y="-0" x="0 3 9 ">-10</tspan>
   </text>
   <text font-size="10" font-style="normal" font-family="FreeSans" xml:space="preserve" font-weight="normal" transform="translate(59.4075,276.411) rotate(-0,6,-4)">
    <tspan fill="rgb(38,38,38)" y="-0" x="0 ">0</tspan>
   </text>
   <text font-size="10" font-style="normal" font-family="FreeSans" xml:space="preserve" font-weight="normal" transform="translate(53.4075,193.374) rotate(-0,12,-4)">
    <tspan fill="rgb(38,38,38)" y="-0" x="0 6 ">10</tspan>
   </text>
   <text font-size="10" font-style="normal" font-family="FreeSans" xml:space="preserve" font-weight="normal" transform="translate(53.4075,110.337) rotate(-0,12,-4)">
    <tspan fill="rgb(38,38,38)" y="-0" x="0 6 ">20</tspan>
   </text>
   <polyline stroke-linecap="square" points="74.88,384.48 521.28,384.48" stroke-linejoin="miter" stroke-dasharray="16,0" fill="none" stroke="#262626" stroke-width="0.5"/>
   <polyline stroke-linecap="square" points="74.88,384.48 74.88,32.4" stroke-linejoin="miter" stroke-dasharray="16,0" fill="none" stroke="#262626" stroke-width="0.5"/>
   <polyline stroke-linecap="square" points="235.597,272.411 241.597,272.411" stroke-linejoin="miter" fill="none" stroke="#000000" stroke-width="0.5"/>
   <polyline stroke-linecap="square" points="238.597,269.411 238.597,275.411" stroke-linejoin="miter" fill="none" stroke="#000000" stroke-width="0.5"/>
   <polyline stroke-linecap="butt" points="329.937,189.374 329.928,188.39 329.898,187.407 329.85,186.424 329.782,185.443 329.695,184.463 329.588,183.485 329.462,182.51 329.317,181.537 329.153,180.567 328.969,179.601 328.767,178.638 328.545,177.679 328.305,176.726 328.046,175.777 327.768,174.833 327.472,173.895 327.157,172.963 326.824,172.037 326.472,171.119 326.103,170.207 325.716,169.303 325.31,168.406 324.888,167.518 324.447,166.638 323.99,165.768 323.515,164.906 323.024,164.054 322.515,163.212 321.991,162.38 321.449,161.558 320.892,160.747 320.319,159.948 319.73,159.16 319.126,158.384 318.507,157.62 317.872,156.868 317.223,156.129 316.559,155.402 315.882,154.69 315.19,153.99 314.484,153.305 313.766,152.633 313.034,151.976 312.289,151.333 311.532,150.705 310.762,150.093 309.98,149.495 309.187,148.913 308.383,148.347 307.567,147.797 306.741,147.263 305.904,146.746 305.058,146.245 304.201,145.761 303.336,145.294 302.461,144.844 301.577,144.412 300.685,143.997 299.786,143.599 298.878,143.22 297.963,142.858 297.041,142.515 296.113,142.19 295.178,141.883 294.238,141.595 293.292,141.326 292.34,141.075 291.384,140.843 290.424,140.63 289.46,140.436 288.492,140.261 287.52,140.105 286.546,139.969 285.569,139.851 284.591,139.753 283.61,139.675 282.628,139.615 281.645,139.575 280.662,139.555 279.678,139.554 278.695,139.572 277.712,139.61 276.73,139.667 275.749,139.744 274.77,139.839 273.793,139.955 272.818,140.089 271.847,140.243 270.878,140.416 269.914,140.608 268.953,140.818 267.996,141.048 267.045,141.297 266.098,141.564 265.157,141.851 264.221,142.155 263.292,142.478 262.37,142.819 261.454,143.179 260.545,143.556 259.645,143.952 258.752,144.365 257.867,144.795 256.992,145.243 256.125,145.708 255.267,146.19 254.42,146.689 253.582,147.205 252.755,147.737 251.938,148.285 251.132,148.85 250.338,149.43 249.555,150.026 248.784,150.637 248.025,151.263 247.279,151.904 246.546,152.559 245.825,153.229 245.118,153.913 244.425,154.611 243.746,155.323 243.081,156.047 242.43,156.785 241.794,157.535 241.173,158.298 240.567,159.073 239.976,159.86 239.401,160.658 238.842,161.467 238.299,162.288 237.773,163.119 237.263,163.96 236.769,164.811 236.293,165.671 235.833,166.541 235.391,167.42 234.966,168.307 234.559,169.203 234.17,170.106 233.798,171.017 233.445,171.935 233.11,172.86 232.793,173.791 232.494,174.728 232.215,175.671 231.953,176.62 231.711,177.573 231.487,178.531 231.283,179.493 231.097,180.459 230.931,181.429 230.784,182.402 230.655,183.377 230.547,184.355 230.457,185.334 230.387,186.315 230.337,187.298 230.305,188.281 230.293,189.265 230.301,190.248 230.328,191.232 230.374,192.214 230.44,193.196 230.525,194.176 230.63,195.154 230.753,196.13 230.896,197.103 231.059,198.073 231.24,199.04 231.44,200.003 231.66,200.962 231.898,201.917 232.155,202.866 232.431,203.81 232.725,204.749 233.038,205.682 233.369,206.608 233.718,207.528 234.086,208.44" stroke-linejoin="round" fill="none" stroke="#ff0000" stroke-width="0.5"/>
   <polyline stroke-linecap="butt" points="277.62,236.511 302.808,212.629 310.698,204.471 314.254,200.253 316.071,197.616 317.012,195.776 317.449,194.395 317.567,193.307 317.469,192.417 317.217,191.67 316.85,191.031 316.395,190.476 315.871,189.988 315.29,189.558 314.662,189.175 313.994,188.834 313.293,188.531 312.563,188.262 311.807,188.023 311.028,187.814 310.229,187.632 309.411,187.476 308.577,187.344 307.728,187.237 306.866,187.153 305.99,187.092 305.104,187.053 304.206,187.036 303.299,187.042 302.383,187.068 301.459,187.116 300.527,187.186 299.588,187.276 298.643,187.388 297.691,187.521 296.735,187.675 295.774,187.85 294.809,188.046 293.84,188.263 292.868,188.502 291.893,188.761 290.916,189.042 289.937,189.344 288.957,189.668 287.976,190.013 286.994,190.379 286.012,190.766 285.031,191.175 284.05,191.606 283.07,192.058 282.092,192.532 281.116,193.027 280.142,193.543 279.171,194.082 278.204,194.642 277.239,195.223 276.279,195.826 275.324,196.451 274.373,197.098 273.427,197.766 272.486,198.455 271.552,199.166 270.624,199.899 269.703,200.653 268.788,201.428 267.882,202.225 266.983,203.043 266.092,203.882 265.21,204.742 264.336,205.624 263.472,206.526 262.618,207.45 261.773,208.394 260.939,209.359 260.116,210.344 259.304,211.35 258.503,212.377 257.713,213.423 256.936,214.49 256.171,215.576 255.419,216.682 254.679,217.808 253.953,218.954 253.241,220.118 252.542,221.302 251.858,222.505 251.188,223.726 250.533,224.967 249.892,226.225 249.267,227.502 248.658,228.797 248.064,230.109 247.486,231.439 246.925,232.787 246.38,234.151 245.852,235.533 245.34,236.931 244.846,238.345 244.369,239.776 243.909,241.222 243.467,242.685 243.043,244.162 242.637,245.655 242.249,247.163 241.879,248.686 241.527,250.222 241.194,251.773 240.88,253.338 240.583,254.917 240.306,256.508 240.047,258.113 239.807,259.731 239.586,261.361 239.384,263.003 239.2,264.657 239.036,266.323 238.889,268 238.762,269.688 238.653,271.387 238.563,273.097 238.491,274.816 238.438,276.546 238.402,278.286 238.385,280.034 238.385,281.792 238.403,283.559 238.439,285.335 238.491,287.118 238.56,288.91 238.646,290.71 238.749,292.517 238.867,294.332 239,296.153 239.149,297.982 239.312,299.817 239.49,301.658 239.681,303.506 239.886,305.36 240.103,307.219 240.333,309.084 240.573,310.954 240.825,312.829 241.086,314.709 241.357,316.594 241.637,318.484 241.924,320.378 242.218,322.276 242.517,324.178 242.822,326.084 243.13,327.995 243.442,329.909 243.755,331.826 244.068,333.747 244.38,335.671 244.691,337.599 244.997,339.53 245.299,341.464 245.594,343.401 245.88,345.34 246.157,347.283 246.422,349.228 246.673,351.176 246.908,353.126 247.126,355.079 247.324,357.034 247.499,358.991 247.65,360.949 247.774,362.91 247.868,364.872 247.93,366.835 247.956,368.799 247.943,370.763 247.889,372.727 247.791,374.691 247.644,376.654 247.445,378.615 247.19,380.574 246.877,382.529 246.5,384.48" stroke-linejoin="round" fill="none" stroke="#0000ff" stroke-width="0.5"/>
   <polyline stroke-linecap="butt" points="382.236,140.269 356.989,162.185 349.002,168.378 345.31,170.633 343.319,171.31 342.164,171.195 341.475,170.624 341.067,169.767 340.837,168.717 340.722,167.531 340.684,166.245 340.696,164.883 340.739,163.463 340.802,161.996 340.875,160.491 340.949,158.956 341.021,157.395 341.085,155.813 341.138,154.214 341.178,152.6 341.202,150.974 341.209,149.337 341.198,147.692 341.166,146.04 341.114,144.382 341.04,142.72 340.944,141.055 340.825,139.387 340.682,137.718 340.516,136.048 340.326,134.379 340.112,132.71 339.873,131.044 339.61,129.38 339.322,127.718 339.009,126.061 338.672,124.408 338.31,122.759 337.923,121.116 337.511,119.479 337.075,117.848 336.615,116.224 336.13,114.607 335.621,112.999 335.087,111.398 334.53,109.807 333.949,108.224 333.344,106.651 332.716,105.089 332.064,103.536 331.39,101.995 330.693,100.465 329.973,98.9466 329.232,97.4402 328.468,95.9462 327.682,94.4649 326.875,92.9967 326.047,91.542 325.199,90.1011 324.329,88.6742 323.44,87.2618 322.53,85.8642 321.602,84.4816 320.654,83.1143 319.687,81.7626 318.701,80.4268 317.698,79.1072 316.677,77.8041 315.638,76.5176 314.583,75.2481 313.511,73.9957 312.423,72.7607 311.319,71.5433 310.199,70.3438 309.065,69.1623 307.917,67.999 306.754,66.8541 305.577,65.7278 304.388,64.6202 303.185,63.5316 301.97,62.462 300.744,61.4116 299.506,60.3805 298.257,59.3689 296.997,58.3768 295.728,57.4044 294.449,56.4518 293.161,55.519 291.864,54.6061 290.56,53.7132 289.248,52.8403 287.928,51.9875 286.603,51.1548 285.271,50.3423 283.933,49.5499 282.591,48.7777 281.244,48.0257 279.893,47.2938 278.539,46.5819 277.182,45.8902 275.822,45.2185 274.46,44.5668 273.098,43.9351 271.734,43.3232 270.371,42.731 269.007,42.1584 267.645,41.6054 266.284,41.0718 264.926,40.5576 263.57,40.0624 262.217,39.5863 260.868,39.1291 259.523,38.6904 258.184,38.2704 256.85,37.8685 255.523,37.4847 254.202,37.1188 252.889,36.7705 251.584,36.4396 250.287,36.1258 249,35.8289 247.724,35.5485 246.457,35.2845 245.203,35.0364 243.96,34.8041 242.73,34.5871 241.514,34.3851 240.311,34.1978 239.124,34.0248 237.952,33.8657 236.797,33.7202 235.658,33.5878 234.538,33.4681 233.436,33.3608 232.354,33.2654 231.292,33.1814 230.251,33.1083 229.232,33.0458 228.236,32.9933 227.264,32.9502 226.317,32.9162 225.395,32.8906 224.499,32.873 223.632,32.8628 222.793,32.8594 221.983,32.8622 221.204,32.8707 220.458,32.8843 219.744,32.9023 219.064,32.9243 218.42,32.9494 217.812,32.9771 217.243,33.0068 216.713,33.0378 216.224,33.0694 215.777,33.101 215.374,33.1319 215.017,33.1614 214.707,33.1889 214.445,33.2137 214.234,33.2351 214.076,33.2526 213.972,33.2653 213.924,33.2726 213.935,33.2741 214.007,33.2689 214.142,33.2567 214.343,33.2367 214.612,33.2085 214.951,33.1716 215.364,33.1257 215.852,33.0701 216.42,33.0048 217.071,32.9294 217.806,32.8439 218.631,32.748 219.547,32.6419 220.56,32.5258 221.671,32.4" stroke-linejoin="round" fill="none" stroke="#ff00ff" stroke-width="0.5"/>
   <polyline stroke-linecap="butt" points="290.424,140.63 265.21,204.742" stroke-linejoin="round" fill="none" stroke="#00ff00" stroke-width="0.5"/>
   <polyline stroke-linecap="butt" points="290.424,140.63 315.638,76.5176" stroke-linejoin="round" fill="none" stroke="#ffff00" stroke-width="0.5"/>
   <polyline stroke-linecap="square" points="277.115,186.374 283.115,192.374" stroke-linejoin="miter" fill="none" stroke="#000000" stroke-width="0.5"/>
   <polyline stroke-linecap="square" points="277.115,192.374 283.115,186.374" stroke-linejoin="miter" fill="none" stroke="#000000" stroke-width="0.5"/>
  </g>
 </g>
</svg>
